<svg width="37" height="36" viewBox="0 0 37 36" fill="none" xmlns="http://www.w3.org/2000/svg">
<g clip-path="url(#clip0_103_1661)">
<path d="M13.875 33C14.7034 33 15.375 32.3284 15.375 31.5C15.375 30.6716 14.7034 30 13.875 30C13.0466 30 12.375 30.6716 12.375 31.5C12.375 32.3284 13.0466 33 13.875 33Z" stroke="white" stroke-width="3" stroke-linecap="round" stroke-linejoin="round"/>
<path d="M30.375 33C31.2034 33 31.875 32.3284 31.875 31.5C31.875 30.6716 31.2034 30 30.375 30C29.5466 30 28.875 30.6716 28.875 31.5C28.875 32.3284 29.5466 33 30.375 33Z" stroke="white" stroke-width="3" stroke-linecap="round" stroke-linejoin="round"/>
<path d="M1.875 1.5H7.875L11.895 21.585C12.0322 22.2756 12.4079 22.8959 12.9563 23.3374C13.5048 23.779 14.191 24.0135 14.895 24H29.475C30.179 24.0135 30.8652 23.779 31.4137 23.3374C31.9621 22.8959 32.3378 22.2756 32.475 21.585L34.875 9H9.375" stroke="white" stroke-width="3" stroke-linecap="round" stroke-linejoin="round"/>
</g>
<defs>
<clipPath id="clip0_103_1661">
<rect width="36" height="36" fill="white" transform="translate(0.375)"/>
</clipPath>
</defs>
</svg>
