<svg width="22" height="18" viewBox="0 0 22 18" fill="none" xmlns="http://www.w3.org/2000/svg">
<path d="M10.9983 17.875C10.8614 17.8748 10.726 17.8477 10.5997 17.7951C10.4733 17.7426 10.3585 17.6656 10.2619 17.5687L2.17229 9.46458C1.15275 8.44093 0.580322 7.0551 0.580322 5.61037C0.580322 4.16566 1.15275 2.7798 2.17229 1.7562C3.1941 0.737307 4.57824 0.16514 6.02125 0.16514C7.46426 0.16514 8.84839 0.737307 9.87019 1.7562L10.9983 2.88954L12.1285 1.75933C13.1502 0.740172 14.5345 0.167828 15.9775 0.167828C17.4206 0.167828 18.8048 0.740172 19.8264 1.75933C20.8457 2.78306 21.418 4.16887 21.418 5.61349C21.418 7.05812 20.8457 8.44395 19.8264 9.4677L11.7379 17.5698C11.6408 17.6669 11.5255 17.7438 11.3986 17.7961C11.2716 17.8485 11.1356 17.8753 10.9983 17.875ZM6.02125 2.24995C5.58022 2.2481 5.1432 2.33378 4.73551 2.50204C4.32783 2.6703 3.95759 2.91779 3.64625 3.23016C3.01645 3.86285 2.66286 4.71922 2.66286 5.61193C2.66286 6.50468 3.01645 7.36104 3.64625 7.99374L10.9983 15.3594L18.3535 7.99374C18.6663 7.68177 18.9146 7.31124 19.0841 6.90333C19.2537 6.49541 19.3413 6.05811 19.342 5.61636C19.3425 5.1746 19.2561 4.73706 19.0876 4.3287C18.919 3.92035 18.6718 3.54919 18.3598 3.23641C18.0478 2.92364 17.6774 2.67537 17.2695 2.50578C16.8615 2.33619 16.4241 2.2486 15.9825 2.24803C15.0903 2.24685 14.2341 2.60014 13.6025 3.23016L11.7379 5.09995C11.539 5.28923 11.275 5.3948 11.0004 5.3948C10.7258 5.3948 10.4619 5.28923 10.2629 5.09995L8.39417 3.22912C8.08298 2.91718 7.71304 2.67003 7.30574 2.50195C6.89844 2.33389 6.46186 2.24823 6.02125 2.24995Z" fill="#2A2670"/>
</svg>
