<?xml version="1.0" encoding="UTF-8"?>
<svg xmlns="http://www.w3.org/2000/svg" xmlns:xlink="http://www.w3.org/1999/xlink" width="40px" height="40px" viewBox="0 0 40 40" version="1.1">
<g id="surface1">
<path style="fill-rule:nonzero;fill:rgb(16.470589%,14.901961%,43.921569%);fill-opacity:1;stroke-width:1;stroke-linecap:butt;stroke-linejoin:miter;stroke:rgb(16.470589%,14.901961%,43.921569%);stroke-opacity:1;stroke-miterlimit:4;" d="M 16.640625 20.66875 C 16.25 21.059375 16.25 21.690625 16.640625 22.084375 C 16.8375 22.278125 17.09375 22.375 17.35 22.375 C 17.60625 22.375 17.8625 22.278125 18.05625 22.084375 L 23.9625 16.01875 L 18.05625 9.95625 C 17.665625 9.565625 17.034375 9.565625 16.640625 9.95625 C 16.25 10.346875 16.25 10.98125 16.640625 11.371875 L 20.259375 14.9875 L 0.99375 14.9875 C 0.44375 14.9875 -0.00625 15.4375 -0.00625 15.9875 C -0.00625 16.540625 0.44375 16.9875 0.99375 16.9875 L 20.321875 16.9875 Z M 30.00625 0 L 12.00625 0 C 10.9 0 10.003125 0.89375 10.003125 2 L 10.003125 11 L 12.01875 11 L 12.01875 3.21875 C 12.01875 2.553125 12.559375 2.009375 13.228125 2.009375 L 28.75 2.009375 C 29.41875 2.009375 29.959375 2.553125 29.959375 3.21875 L 29.990625 28.790625 C 29.990625 29.459375 29.45 30.003125 28.78125 30.003125 L 13.228125 30.003125 C 12.5625 30.003125 12.01875 29.459375 12.01875 28.790625 L 12.01875 20.96875 L 10.00625 20.971875 L 10.00625 30 C 10.00625 31.10625 10.9 32 12.00625 32 L 30.00625 32 C 31.1125 32 32.00625 31.10625 32.00625 30 L 32.00625 2 C 32.00625 0.896875 31.109375 0 30.00625 0 Z M 30.00625 0 " transform="matrix(1.25,0,0,1.25,0,0)"/>
</g>
</svg>
