<svg width="31" height="26" viewBox="0 0 31 26" fill="none" xmlns="http://www.w3.org/2000/svg">
<path d="M15.8721 25.5C15.675 25.4997 15.48 25.4607 15.2981 25.3849C15.1161 25.3093 14.9508 25.1985 14.8116 25.059L3.16267 13.389C1.69453 11.9149 0.870239 9.91935 0.870239 7.83894C0.870239 5.75856 1.69453 3.76292 3.16267 2.28894C4.63408 0.82173 6.62724 -0.00218964 8.70517 -0.00218964C10.7831 -0.00218964 12.7762 0.82173 14.2476 2.28894L15.8721 3.92094L17.4996 2.29344C18.9708 0.825856 20.9642 0.00168061 23.0421 0.00168061C25.1202 0.00168061 27.1134 0.825856 28.5846 2.29344C30.0524 3.76761 30.8765 5.76318 30.8765 7.84344C30.8765 9.9237 30.0524 11.9193 28.5846 13.3935L16.9371 25.0605C16.7973 25.2003 16.6313 25.3111 16.4486 25.3864C16.2657 25.4619 16.0698 25.5005 15.8721 25.5ZM8.70517 2.99994C8.07009 2.99727 7.44078 3.12065 6.85371 3.36294C6.26665 3.60524 5.73351 3.96162 5.28517 4.41144C4.37826 5.32251 3.8691 6.55569 3.8691 7.84119C3.8691 9.12675 4.37826 10.3599 5.28517 11.271L15.8721 21.8775L26.4636 11.271C26.9141 10.8218 27.2715 10.2882 27.5157 9.7008C27.7599 9.1134 27.8861 8.48369 27.887 7.84757C27.8877 7.21143 27.7634 6.58137 27.5207 5.99334C27.278 5.40531 26.9219 4.87085 26.4726 4.42044C26.0234 3.97005 25.49 3.61254 24.9026 3.36833C24.3152 3.12413 23.6853 2.99799 23.0493 2.99717C21.7646 2.99547 20.5317 3.50421 19.6221 4.41144L16.9371 7.10394C16.6508 7.37651 16.2705 7.52851 15.8751 7.52851C15.4797 7.52851 15.0996 7.37651 14.8131 7.10394L12.1222 4.40994C11.6741 3.96075 11.1414 3.60485 10.5548 3.36282C9.96832 3.12081 9.33966 2.99747 8.70517 2.99994Z" fill="white"/>
</svg>
