<svg width="27" height="27" viewBox="0 0 27 27" fill="none" xmlns="http://www.w3.org/2000/svg">
<g clip-path="url(#clip0_134_2463)">
<path d="M24.4156 4.4109C23.5204 4.9806 22.6252 5.46892 21.4858 5.71307C20.5091 4.4109 18.8814 3.59705 17.0909 3.59705C13.9169 3.59705 11.3939 6.12 11.3939 9.29404C11.3939 9.61958 11.3939 9.94513 11.4753 10.2707C7.89436 9.70097 4.72032 7.8291 2.52291 5.06199C2.11598 5.79446 1.87182 6.6897 1.87182 7.66633C1.87182 9.45681 2.76706 11.0031 4.06923 11.8984C3.25538 11.8984 2.44152 11.6542 1.79044 11.2473V11.3287C1.79044 13.8516 3.49953 15.8863 5.77833 16.3746C5.3714 16.456 4.88309 16.5374 4.47616 16.5374C4.15062 16.5374 3.82508 16.5374 3.49953 16.456C4.15062 18.4906 5.9411 19.9556 8.13852 20.0369C6.42942 21.4205 4.232 22.2344 1.95321 22.2344C1.54628 22.2344 1.13935 22.2344 0.732422 22.153C2.92983 23.6179 5.53418 24.4318 8.38267 24.4318C17.4979 24.4318 22.5438 16.7001 22.6252 9.94513L25.2295 8.48018L22.7879 7.66633L24.4156 4.4109Z" stroke="white" stroke-width="2.17028" stroke-miterlimit="10" stroke-linecap="round" stroke-linejoin="round"/>
</g>
<defs>
<clipPath id="clip0_134_2463">
<rect width="26.0434" height="26.0434" fill="white" transform="translate(0 0.341736)"/>
</clipPath>
</defs>
</svg>
